<svg xmlns="http://www.w3.org/2000/svg" xmlns:xlink="http://www.w3.org/1999/xlink" width="500" zoomAndPan="magnify" viewBox="0 0 375 374.999991" height="500" preserveAspectRatio="xMidYMid meet" version="1.0"><defs><filter x="0%" y="0%" width="100%" height="100%" id="ab1dd4320d"><feColorMatrix values="0 0 0 0 1 0 0 0 0 1 0 0 0 0 1 0 0 0 1 0" color-interpolation-filters="sRGB"/></filter><g/><mask id="091aea0245"><g filter="url(#ab1dd4320d)"><rect x="-37.5" width="450" fill="#000000" y="-37.499999" height="449.999989" fill-opacity="0.2275"/></g></mask><clipPath id="32ace2b83c"><path d="M 158 32 L 362.839844 32 L 362.839844 68 L 158 68 Z M 158 32 " clip-rule="nonzero"/></clipPath><clipPath id="45fe9c92b0"><path d="M 143 1.082031 L 314 1.082031 L 314 51 L 143 51 Z M 143 1.082031 " clip-rule="nonzero"/></clipPath><clipPath id="6b09bade96"><path d="M 0.589844 70 L 206 70 L 206 105 L 0.589844 105 Z M 0.589844 70 " clip-rule="nonzero"/></clipPath><clipPath id="683129e732"><path d="M 49 86 L 220 86 L 220 136.082031 L 49 136.082031 Z M 49 86 " clip-rule="nonzero"/></clipPath><clipPath id="c8f18fabbd"><rect x="0" width="363" y="0" height="137"/></clipPath><clipPath id="893aa26cc4"><path d="M 273.140625 127.640625 L 298.714844 127.640625 L 298.714844 153.300781 L 273.140625 153.300781 Z M 273.140625 127.640625 " clip-rule="nonzero"/></clipPath><clipPath id="adcb576eec"><path d="M 273.140625 186.769531 L 298.714844 186.769531 L 298.714844 212.429688 L 273.140625 212.429688 Z M 273.140625 186.769531 " clip-rule="nonzero"/></clipPath><clipPath id="5b7bbae2fe"><path d="M 73.746094 127 L 100 127 L 100 154 L 73.746094 154 Z M 73.746094 127 " clip-rule="nonzero"/></clipPath><clipPath id="742cf0a0cd"><path d="M 73.746094 186 L 100 186 L 100 213 L 73.746094 213 Z M 73.746094 186 " clip-rule="nonzero"/></clipPath><clipPath id="ac04b645de"><path d="M 119 229.386719 L 144.617188 229.386719 L 144.617188 254.996094 L 119 254.996094 Z M 119 229.386719 " clip-rule="nonzero"/></clipPath><clipPath id="b76fea7cd0"><path d="M 227.925781 229.386719 L 253.539062 229.386719 L 253.539062 254.996094 L 227.925781 254.996094 Z M 227.925781 229.386719 " clip-rule="nonzero"/></clipPath><clipPath id="58df6a7034"><path d="M 173.351562 229.386719 L 198.964844 229.386719 L 198.964844 254.996094 L 173.351562 254.996094 Z M 173.351562 229.386719 " clip-rule="nonzero"/></clipPath><clipPath id="b5f8ec595c"><path d="M 143 37.5 L 229 37.5 L 229 59 L 143 59 Z M 143 37.5 " clip-rule="nonzero"/></clipPath></defs><g mask="url(#091aea0245)"><g transform="matrix(1, 0, 0, 1, 6, 119)"><g clip-path="url(#c8f18fabbd)"><path fill="#3f307c" d="M 142.023438 48.820312 C 143.46875 48.820312 144.640625 49.996094 144.640625 51.441406 C 144.640625 52.890625 143.46875 54.0625 142.023438 54.0625 C 140.578125 54.0625 139.40625 52.890625 139.40625 51.441406 C 139.40625 49.996094 140.578125 48.820312 142.023438 48.820312 Z M 314.960938 98.765625 C 316.40625 98.765625 317.578125 99.941406 317.578125 101.386719 C 317.578125 102.835938 316.40625 104.011719 314.960938 104.011719 C 313.519531 104.011719 312.347656 102.835938 312.347656 101.386719 C 312.347656 99.941406 313.519531 98.765625 314.960938 98.765625 Z M 160.152344 124.789062 C 158.707031 124.789062 157.535156 123.613281 157.535156 122.164062 C 157.535156 120.71875 158.707031 119.542969 160.152344 119.542969 C 161.597656 119.542969 162.769531 120.71875 162.769531 122.164062 C 162.769531 123.613281 161.597656 124.789062 160.152344 124.789062 Z M 142.023438 55.550781 C 143.910156 55.550781 145.5 54.269531 145.976562 52.53125 L 208.257812 52.53125 L 255.929688 100.300781 L 241.0625 100.300781 L 220.328125 121.078125 L 164.105469 121.078125 C 163.632812 119.335938 162.042969 118.054688 160.152344 118.054688 C 157.890625 118.054688 156.054688 119.898438 156.054688 122.164062 C 156.054688 124.433594 157.890625 126.273438 160.152344 126.273438 C 161.96875 126.273438 163.507812 125.09375 164.046875 123.453125 L 221.308594 123.453125 L 242.042969 102.675781 L 311.070312 102.675781 C 311.609375 104.3125 313.148438 105.496094 314.960938 105.496094 C 317.226562 105.496094 319.0625 103.65625 319.0625 101.386719 C 319.0625 99.117188 317.226562 97.277344 314.960938 97.277344 C 313.074219 97.277344 311.484375 98.5625 311.007812 100.300781 L 259.28125 100.300781 L 209.242188 50.15625 L 145.914062 50.15625 C 145.375 48.515625 143.835938 47.335938 142.023438 47.335938 C 139.757812 47.335938 137.921875 49.175781 137.921875 51.441406 C 137.921875 53.710938 139.757812 55.550781 142.023438 55.550781 " fill-opacity="1" fill-rule="nonzero"/><g clip-path="url(#32ace2b83c)"><path fill="#3f307c" d="M 241.007812 37.769531 L 172.761719 37.769531 C 171.871094 34.605469 168.972656 32.289062 165.535156 32.289062 C 161.390625 32.289062 158.027344 35.65625 158.027344 39.8125 C 158.027344 43.96875 161.390625 47.335938 165.535156 47.335938 C 168.730469 47.335938 171.457031 45.335938 172.539062 42.519531 L 239.042969 42.519531 L 258.667969 62.183594 L 348.199219 62.183594 C 349.285156 65.003906 352.007812 67.003906 355.203125 67.003906 C 359.351562 67.003906 362.710938 63.632812 362.710938 59.480469 C 362.710938 55.324219 359.351562 51.957031 355.203125 51.957031 C 351.765625 51.957031 348.867188 54.273438 347.980469 57.4375 L 260.632812 57.4375 L 241.007812 37.769531 " fill-opacity="1" fill-rule="nonzero"/></g><g clip-path="url(#45fe9c92b0)"><path fill="#3f307c" d="M 148.09375 2.574219 C 149.539062 2.574219 150.707031 3.746094 150.707031 5.195312 C 150.707031 6.644531 149.539062 7.816406 148.09375 7.816406 C 146.648438 7.816406 145.476562 6.644531 145.476562 5.195312 C 145.476562 3.746094 146.648438 2.574219 148.09375 2.574219 Z M 309.652344 43.941406 C 311.097656 43.941406 312.269531 45.113281 312.269531 46.5625 C 312.269531 48.011719 311.097656 49.183594 309.652344 49.183594 C 308.210938 49.183594 307.035156 48.011719 307.035156 46.5625 C 307.035156 45.113281 308.210938 43.941406 309.652344 43.941406 Z M 186.941406 28.621094 C 185.496094 28.621094 184.324219 27.445312 184.324219 26 C 184.324219 24.550781 185.496094 23.375 186.941406 23.375 C 188.386719 23.375 189.558594 24.550781 189.558594 26 C 189.558594 27.445312 188.386719 28.621094 186.941406 28.621094 Z M 148.09375 9.304688 C 149.980469 9.304688 151.570312 8.023438 152.046875 6.28125 L 208.265625 6.28125 L 226.65625 24.710938 L 190.835938 24.710938 C 190.296875 23.070312 188.757812 21.890625 186.941406 21.890625 C 184.679688 21.890625 182.84375 23.726562 182.84375 26 C 182.84375 28.265625 184.679688 30.105469 186.941406 30.105469 C 188.832031 30.105469 190.421875 28.824219 190.894531 27.082031 L 247.117188 27.082031 L 267.851562 47.859375 L 305.765625 47.859375 C 306.304688 49.492188 307.84375 50.671875 309.652344 50.671875 C 311.917969 50.671875 313.753906 48.832031 313.753906 46.5625 C 313.753906 44.292969 311.917969 42.453125 309.652344 42.453125 C 307.757812 42.453125 306.167969 43.738281 305.695312 45.484375 L 268.832031 45.484375 L 248.097656 24.710938 L 247.128906 24.710938 L 247.128906 24.683594 L 229.984375 24.683594 L 209.246094 3.90625 L 151.984375 3.90625 C 151.445312 2.269531 149.90625 1.085938 148.09375 1.085938 C 145.828125 1.085938 143.992188 2.925781 143.992188 5.195312 C 143.992188 7.460938 145.828125 9.304688 148.09375 9.304688 " fill-opacity="1" fill-rule="nonzero"/></g><path fill="#3f307c" d="M 287.570312 80.230469 L 258.621094 80.230469 L 241.046875 62.617188 L 223.351562 62.617188 L 225.722656 64.992188 L 240.066406 64.992188 L 257.640625 82.605469 L 287.609375 82.605469 C 288.136719 84.261719 289.6875 85.460938 291.515625 85.460938 C 293.78125 85.460938 295.613281 83.621094 295.613281 81.355469 C 295.613281 79.085938 293.78125 77.246094 291.515625 77.246094 C 289.640625 77.246094 288.058594 78.507812 287.570312 80.230469 " fill-opacity="1" fill-rule="nonzero"/><path fill="#3f307c" d="M 219.019531 64.992188 L 216.652344 62.617188 L 167.753906 62.617188 C 167.269531 60.894531 165.6875 59.632812 163.8125 59.632812 C 161.546875 59.632812 159.710938 61.472656 159.710938 63.742188 C 159.710938 66.011719 161.546875 67.847656 163.8125 67.847656 C 165.640625 67.847656 167.1875 66.652344 167.71875 64.992188 L 219.019531 64.992188 " fill-opacity="1" fill-rule="nonzero"/><path fill="#3f307c" d="M 221.410156 88.363281 C 219.960938 88.363281 218.789062 87.1875 218.789062 85.738281 C 218.789062 84.292969 219.960938 83.117188 221.410156 83.117188 C 222.851562 83.117188 224.023438 84.292969 224.023438 85.738281 C 224.023438 87.1875 222.851562 88.363281 221.410156 88.363281 Z M 48.46875 38.414062 C 47.023438 38.414062 45.851562 37.242188 45.851562 35.792969 C 45.851562 34.34375 47.023438 33.171875 48.46875 33.171875 C 49.914062 33.171875 51.085938 34.34375 51.085938 35.792969 C 51.085938 37.242188 49.914062 38.414062 48.46875 38.414062 Z M 203.277344 12.394531 C 204.722656 12.394531 205.894531 13.566406 205.894531 15.015625 C 205.894531 16.464844 204.722656 17.636719 203.277344 17.636719 C 201.832031 17.636719 200.660156 16.464844 200.660156 15.015625 C 200.660156 13.566406 201.832031 12.394531 203.277344 12.394531 Z M 221.410156 81.632812 C 219.519531 81.632812 217.929688 82.910156 217.457031 84.652344 L 155.171875 84.652344 L 107.5 36.878906 L 122.371094 36.878906 L 143.101562 16.101562 L 199.324219 16.101562 C 199.800781 17.84375 201.390625 19.125 203.277344 19.125 C 205.539062 19.125 207.375 17.285156 207.375 15.015625 C 207.375 12.75 205.539062 10.910156 203.277344 10.910156 C 201.460938 10.910156 199.925781 12.089844 199.382812 13.730469 L 142.121094 13.730469 L 121.386719 34.503906 L 52.363281 34.503906 C 51.824219 32.867188 50.285156 31.683594 48.46875 31.683594 C 46.203125 31.683594 44.371094 33.523438 44.371094 35.792969 C 44.371094 38.0625 46.203125 39.902344 48.46875 39.902344 C 50.359375 39.902344 51.945312 38.621094 52.421875 36.878906 L 104.148438 36.878906 L 154.191406 87.027344 L 217.515625 87.027344 C 218.054688 88.664062 219.59375 89.847656 221.410156 89.847656 C 223.671875 89.847656 225.507812 88.007812 225.507812 85.738281 C 225.507812 83.472656 223.671875 81.632812 221.410156 81.632812 " fill-opacity="1" fill-rule="nonzero"/><g clip-path="url(#6b09bade96)"><path fill="#3f307c" d="M 122.425781 99.414062 L 190.671875 99.414062 C 191.5625 102.574219 194.457031 104.890625 197.894531 104.890625 C 202.042969 104.890625 205.402344 101.527344 205.402344 97.367188 C 205.402344 93.214844 202.042969 89.847656 197.894531 89.847656 C 194.703125 89.847656 191.976562 91.84375 190.890625 94.664062 L 124.386719 94.664062 L 104.761719 74.996094 L 15.234375 74.996094 C 14.148438 72.179688 11.421875 70.179688 8.226562 70.179688 C 4.082031 70.179688 0.71875 73.546875 0.71875 77.703125 C 0.71875 81.859375 4.082031 85.226562 8.226562 85.226562 C 11.667969 85.226562 14.5625 82.90625 15.453125 79.746094 L 102.796875 79.746094 L 122.425781 99.414062 " fill-opacity="1" fill-rule="nonzero"/></g><g clip-path="url(#683129e732)"><path fill="#3f307c" d="M 215.339844 134.609375 C 213.894531 134.609375 212.722656 133.433594 212.722656 131.984375 C 212.722656 130.539062 213.894531 129.363281 215.339844 129.363281 C 216.785156 129.363281 217.957031 130.539062 217.957031 131.984375 C 217.957031 133.433594 216.785156 134.609375 215.339844 134.609375 Z M 53.777344 93.242188 C 52.332031 93.242188 51.160156 92.066406 51.160156 90.621094 C 51.160156 89.171875 52.332031 87.996094 53.777344 87.996094 C 55.222656 87.996094 56.394531 89.171875 56.394531 90.621094 C 56.394531 92.066406 55.222656 93.242188 53.777344 93.242188 Z M 176.488281 108.5625 C 177.933594 108.5625 179.105469 109.734375 179.105469 111.183594 C 179.105469 112.632812 177.933594 113.804688 176.488281 113.804688 C 175.042969 113.804688 173.871094 112.632812 173.871094 111.183594 C 173.871094 109.734375 175.042969 108.5625 176.488281 108.5625 Z M 215.339844 127.878906 C 213.449219 127.878906 211.863281 129.15625 211.386719 130.898438 L 155.164062 130.898438 L 136.773438 112.472656 L 172.597656 112.472656 C 173.136719 114.109375 174.675781 115.292969 176.488281 115.292969 C 178.753906 115.292969 180.589844 113.453125 180.589844 111.183594 C 180.589844 108.914062 178.753906 107.074219 176.488281 107.074219 C 174.601562 107.074219 173.011719 108.355469 172.535156 110.097656 L 116.3125 110.097656 L 95.582031 89.320312 L 57.667969 89.320312 C 57.125 87.6875 55.589844 86.511719 53.777344 86.511719 C 51.515625 86.511719 49.679688 88.351562 49.679688 90.621094 C 49.679688 92.890625 51.515625 94.730469 53.777344 94.730469 C 55.671875 94.730469 57.261719 93.441406 57.734375 91.695312 L 94.597656 91.695312 L 115.332031 112.472656 L 116.304688 112.472656 L 116.304688 112.496094 L 133.449219 112.496094 L 154.183594 133.273438 L 211.445312 133.273438 C 211.984375 134.914062 213.523438 136.09375 215.339844 136.09375 C 217.601562 136.09375 219.4375 134.253906 219.4375 131.984375 C 219.4375 129.71875 217.601562 127.878906 215.339844 127.878906 " fill-opacity="1" fill-rule="nonzero"/></g><path fill="#3f307c" d="M 75.859375 56.953125 L 104.808594 56.953125 L 122.382812 74.5625 L 140.078125 74.5625 L 137.707031 72.1875 L 123.367188 72.1875 L 105.789062 54.578125 L 75.820312 54.578125 C 75.292969 52.917969 73.746094 51.71875 71.917969 51.71875 C 69.652344 51.71875 67.816406 53.558594 67.816406 55.828125 C 67.816406 58.097656 69.652344 59.9375 71.917969 59.9375 C 73.792969 59.9375 75.371094 58.671875 75.859375 56.953125 " fill-opacity="1" fill-rule="nonzero"/><path fill="#3f307c" d="M 144.410156 72.1875 L 146.78125 74.5625 L 195.675781 74.5625 C 196.164062 76.285156 197.742188 77.546875 199.621094 77.546875 C 201.882812 77.546875 203.71875 75.710938 203.71875 73.4375 C 203.71875 71.171875 201.882812 69.332031 199.621094 69.332031 C 197.792969 69.332031 196.242188 70.53125 195.714844 72.1875 L 144.410156 72.1875 " fill-opacity="1" fill-rule="nonzero"/></g></g></g><path fill="#3f307c" d="M 136.035156 132.792969 L 236.460938 132.792969 L 186.246094 94.515625 Z M 243.726562 137.703125 L 128.769531 137.703125 C 127.71875 137.703125 126.785156 137.027344 126.449219 136.03125 C 126.113281 135.035156 126.449219 133.933594 127.285156 133.292969 L 184.765625 89.476562 C 185.640625 88.808594 186.855469 88.808594 187.730469 89.476562 L 245.207031 133.292969 C 246.046875 133.933594 246.382812 135.035156 246.046875 136.03125 C 245.710938 137.027344 244.777344 137.703125 243.726562 137.703125 " fill-opacity="1" fill-rule="nonzero"/><path fill="#3f307c" d="M 150.8125 120.3125 L 145.914062 120.3125 L 145.914062 102.175781 C 145.914062 100.820312 147.007812 99.722656 148.363281 99.722656 L 159.597656 99.722656 C 160.949219 99.722656 162.046875 100.820312 162.046875 102.175781 L 162.046875 111.746094 L 157.148438 111.746094 L 157.148438 104.628906 L 150.8125 104.628906 L 150.8125 120.3125 " fill-opacity="1" fill-rule="nonzero"/><path fill="#3f307c" d="M 251.464844 162.542969 L 234.882812 162.542969 L 234.882812 157.632812 L 249.015625 157.632812 L 249.015625 140.433594 C 249.015625 139.078125 250.113281 137.976562 251.464844 137.976562 L 276.632812 137.976562 L 276.632812 142.886719 L 253.914062 142.886719 L 253.914062 160.085938 C 253.914062 161.441406 252.820312 162.542969 251.464844 162.542969 " fill-opacity="1" fill-rule="nonzero"/><g clip-path="url(#893aa26cc4)"><path fill="#3f307c" d="M 286.027344 132.632812 C 281.730469 132.632812 278.238281 136.132812 278.238281 140.433594 C 278.238281 144.734375 281.730469 148.234375 286.027344 148.234375 C 290.320312 148.234375 293.8125 144.734375 293.8125 140.433594 C 293.8125 136.132812 290.320312 132.632812 286.027344 132.632812 Z M 286.027344 153.140625 C 279.03125 153.140625 273.335938 147.441406 273.335938 140.433594 C 273.335938 133.425781 279.03125 127.722656 286.027344 127.722656 C 293.019531 127.722656 298.714844 133.425781 298.714844 140.433594 C 298.714844 147.441406 293.019531 153.140625 286.027344 153.140625 " fill-opacity="1" fill-rule="nonzero"/></g><path fill="#3f307c" d="M 276.632812 202.140625 L 251.464844 202.140625 C 250.113281 202.140625 249.015625 201.042969 249.015625 199.6875 L 249.015625 182.488281 L 234.882812 182.488281 L 234.882812 177.578125 L 251.464844 177.578125 C 252.820312 177.578125 253.914062 178.675781 253.914062 180.03125 L 253.914062 197.234375 L 276.632812 197.234375 L 276.632812 202.140625 " fill-opacity="1" fill-rule="nonzero"/><g clip-path="url(#adcb576eec)"><path fill="#3f307c" d="M 286.027344 191.886719 C 281.730469 191.886719 278.238281 195.386719 278.238281 199.6875 C 278.238281 203.988281 281.730469 207.488281 286.027344 207.488281 C 290.320312 207.488281 293.8125 203.988281 293.8125 199.6875 C 293.8125 195.386719 290.320312 191.886719 286.027344 191.886719 Z M 286.027344 212.394531 C 279.03125 212.394531 273.335938 206.695312 273.335938 199.6875 C 273.335938 192.679688 279.03125 186.976562 286.027344 186.976562 C 293.019531 186.976562 298.714844 192.679688 298.714844 199.6875 C 298.714844 206.695312 293.019531 212.394531 286.027344 212.394531 " fill-opacity="1" fill-rule="nonzero"/></g><path fill="#3f307c" d="M 137.613281 162.542969 L 121.03125 162.542969 C 119.675781 162.542969 118.578125 161.441406 118.578125 160.085938 L 118.578125 142.886719 L 95.863281 142.886719 L 95.863281 137.976562 L 121.03125 137.976562 C 122.382812 137.976562 123.480469 139.078125 123.480469 140.433594 L 123.480469 157.632812 L 137.613281 157.632812 L 137.613281 162.542969 " fill-opacity="1" fill-rule="nonzero"/><g clip-path="url(#5b7bbae2fe)"><path fill="#3f307c" d="M 86.46875 132.632812 C 82.175781 132.632812 78.683594 136.132812 78.683594 140.433594 C 78.683594 144.734375 82.175781 148.234375 86.46875 148.234375 C 90.761719 148.234375 94.257812 144.734375 94.257812 140.433594 C 94.257812 136.132812 90.761719 132.632812 86.46875 132.632812 Z M 86.46875 153.140625 C 79.472656 153.140625 73.78125 147.441406 73.78125 140.433594 C 73.78125 133.425781 79.472656 127.722656 86.46875 127.722656 C 93.464844 127.722656 99.15625 133.425781 99.15625 140.433594 C 99.15625 147.441406 93.464844 153.140625 86.46875 153.140625 " fill-opacity="1" fill-rule="nonzero"/></g><path fill="#3f307c" d="M 121.03125 202.140625 L 95.863281 202.140625 L 95.863281 197.234375 L 118.578125 197.234375 L 118.578125 180.03125 C 118.578125 178.675781 119.675781 177.578125 121.03125 177.578125 L 137.613281 177.578125 L 137.613281 182.488281 L 123.480469 182.488281 L 123.480469 199.6875 C 123.480469 201.042969 122.382812 202.140625 121.03125 202.140625 " fill-opacity="1" fill-rule="nonzero"/><g clip-path="url(#742cf0a0cd)"><path fill="#3f307c" d="M 86.46875 191.886719 C 82.175781 191.886719 78.683594 195.386719 78.683594 199.6875 C 78.683594 203.988281 82.175781 207.488281 86.46875 207.488281 C 90.761719 207.488281 94.257812 203.988281 94.257812 199.6875 C 94.257812 195.386719 90.761719 191.886719 86.46875 191.886719 Z M 86.46875 212.394531 C 79.472656 212.394531 73.78125 206.695312 73.78125 199.6875 C 73.78125 192.679688 79.472656 186.976562 86.46875 186.976562 C 93.464844 186.976562 99.15625 192.679688 99.15625 199.6875 C 99.15625 206.695312 93.464844 212.394531 86.46875 212.394531 " fill-opacity="1" fill-rule="nonzero"/></g><g clip-path="url(#ac04b645de)"><path fill="#3f307c" d="M 131.855469 234.484375 C 127.5625 234.484375 124.066406 237.984375 124.066406 242.285156 C 124.066406 246.585938 127.5625 250.085938 131.855469 250.085938 C 136.148438 250.085938 139.640625 246.585938 139.640625 242.285156 C 139.640625 237.984375 136.148438 234.484375 131.855469 234.484375 Z M 131.855469 254.996094 C 124.859375 254.996094 119.167969 249.292969 119.167969 242.285156 C 119.167969 235.277344 124.859375 229.578125 131.855469 229.578125 C 138.851562 229.578125 144.542969 235.277344 144.542969 242.285156 C 144.542969 249.292969 138.851562 254.996094 131.855469 254.996094 " fill-opacity="1" fill-rule="nonzero"/></g><path fill="#3f307c" d="M 134.304688 234.160156 L 129.40625 234.160156 L 129.40625 219.046875 C 129.40625 217.691406 130.5 216.59375 131.855469 216.59375 L 151.53125 216.59375 L 151.53125 204.898438 L 156.429688 204.898438 L 156.429688 219.046875 C 156.429688 220.402344 155.332031 221.503906 153.980469 221.503906 L 134.304688 221.503906 L 134.304688 234.160156 " fill-opacity="1" fill-rule="nonzero"/><g clip-path="url(#b76fea7cd0)"><path fill="#3f307c" d="M 240.640625 234.484375 C 236.347656 234.484375 232.851562 237.984375 232.851562 242.285156 C 232.851562 246.585938 236.347656 250.085938 240.640625 250.085938 C 244.933594 250.085938 248.429688 246.585938 248.429688 242.285156 C 248.429688 237.984375 244.933594 234.484375 240.640625 234.484375 Z M 240.640625 254.996094 C 233.644531 254.996094 227.953125 249.292969 227.953125 242.285156 C 227.953125 235.277344 233.644531 229.578125 240.640625 229.578125 C 247.636719 229.578125 253.328125 235.277344 253.328125 242.285156 C 253.328125 249.292969 247.636719 254.996094 240.640625 254.996094 " fill-opacity="1" fill-rule="nonzero"/></g><g clip-path="url(#58df6a7034)"><path fill="#3f307c" d="M 186.246094 234.484375 C 181.953125 234.484375 178.460938 237.984375 178.460938 242.285156 C 178.460938 246.585938 181.953125 250.085938 186.246094 250.085938 C 190.542969 250.085938 194.035156 246.585938 194.035156 242.285156 C 194.035156 237.984375 190.542969 234.484375 186.246094 234.484375 Z M 186.246094 254.996094 C 179.25 254.996094 173.558594 249.292969 173.558594 242.285156 C 173.558594 235.277344 179.25 229.578125 186.246094 229.578125 C 193.242188 229.578125 198.933594 235.277344 198.933594 242.285156 C 198.933594 249.292969 193.242188 254.996094 186.246094 254.996094 " fill-opacity="1" fill-rule="nonzero"/></g><path fill="#3f307c" d="M 243.089844 234.160156 L 238.191406 234.160156 L 238.191406 221.503906 L 218.515625 221.503906 C 217.164062 221.503906 216.066406 220.402344 216.066406 219.046875 L 216.066406 204.898438 L 220.964844 204.898438 L 220.964844 216.59375 L 240.640625 216.59375 C 241.992188 216.59375 243.089844 217.691406 243.089844 219.046875 L 243.089844 234.160156 " fill-opacity="1" fill-rule="nonzero"/><path fill="#3f307c" d="M 188.699219 231.855469 L 183.796875 231.855469 L 183.796875 204.898438 L 188.699219 204.898438 L 188.699219 231.855469 " fill-opacity="1" fill-rule="nonzero"/><path fill="#3f307c" d="M 140.0625 202.445312 L 232.433594 202.445312 L 232.433594 137.675781 L 140.0625 137.675781 Z M 237.332031 207.355469 L 135.164062 207.355469 L 135.164062 132.765625 L 237.332031 132.765625 L 237.332031 207.355469 " fill-opacity="1" fill-rule="nonzero"/><path fill="#3f307c" d="M 150.8125 174.523438 L 177.519531 174.523438 L 177.519531 152.714844 L 150.8125 152.714844 Z M 179.972656 179.429688 L 148.363281 179.429688 C 147.007812 179.429688 145.914062 178.332031 145.914062 176.976562 L 145.914062 150.257812 C 145.914062 148.90625 147.007812 147.804688 148.363281 147.804688 L 179.972656 147.804688 C 181.324219 147.804688 182.421875 148.90625 182.421875 150.257812 L 182.421875 176.976562 C 182.421875 178.332031 181.324219 179.429688 179.972656 179.429688 " fill-opacity="1" fill-rule="nonzero"/><path fill="#3f307c" d="M 198.933594 202.445312 L 218.296875 202.445312 L 218.296875 166.769531 L 198.933594 166.769531 Z M 220.75 207.355469 L 196.484375 207.355469 C 195.132812 207.355469 194.035156 206.253906 194.035156 204.898438 L 194.035156 164.316406 C 194.035156 162.960938 195.132812 161.859375 196.484375 161.859375 L 220.75 161.859375 C 222.101562 161.859375 223.199219 162.960938 223.199219 164.316406 L 223.199219 204.898438 C 223.199219 206.253906 222.101562 207.355469 220.75 207.355469 " fill-opacity="1" fill-rule="nonzero"/><path fill="#3f307c" d="M 180.378906 165.953125 L 148.363281 165.953125 L 148.363281 161.042969 L 180.378906 161.042969 L 180.378906 165.953125 " fill-opacity="1" fill-rule="nonzero"/><path fill="#3f307c" d="M 166.820312 176.976562 L 161.921875 176.976562 L 161.921875 150.257812 L 166.820312 150.257812 L 166.820312 176.976562 " fill-opacity="1" fill-rule="nonzero"/><path fill="#3f307c" d="M 197.039062 86.929688 C 191.070312 80.949219 181.363281 80.949219 175.394531 86.929688 L 171.929688 83.457031 C 175.746094 79.632812 180.820312 77.527344 186.21875 77.527344 C 191.613281 77.527344 196.6875 79.632812 200.503906 83.457031 L 197.039062 86.929688 " fill-opacity="1" fill-rule="nonzero"/><path fill="#3f307c" d="M 206.457031 77.492188 C 195.296875 66.3125 177.136719 66.3125 165.972656 77.492188 L 162.511719 74.023438 C 175.582031 60.929688 196.851562 60.929688 209.921875 74.023438 L 206.457031 77.492188 " fill-opacity="1" fill-rule="nonzero"/><path fill="#3f307c" d="M 215.878906 68.058594 C 207.953125 60.121094 197.421875 55.75 186.21875 55.75 C 175.011719 55.75 164.480469 60.121094 156.554688 68.058594 L 153.089844 64.585938 C 161.9375 55.722656 173.703125 50.84375 186.21875 50.84375 C 198.730469 50.84375 210.492188 55.722656 219.34375 64.585938 L 215.878906 68.058594 " fill-opacity="1" fill-rule="nonzero"/><g clip-path="url(#b5f8ec595c)"><path fill="#3f307c" d="M 147.136719 58.625 L 143.671875 55.152344 C 155.035156 43.769531 170.144531 37.5 186.21875 37.5 C 202.289062 37.5 217.394531 43.769531 228.761719 55.152344 L 225.296875 58.625 C 214.859375 48.167969 200.976562 42.410156 186.21875 42.410156 C 171.453125 42.410156 157.574219 48.167969 147.136719 58.625 " fill-opacity="1" fill-rule="nonzero"/></g><g fill="#5c4392" fill-opacity="1"><g transform="translate(64.230407, 299.781396)"><g><path d="M 7.488281 -4.96875 L 7.488281 -19.472656 L 9.105469 -19.472656 C 13.28125 -19.472656 16.089844 -16.304688 16.089844 -12.238281 C 16.089844 -8.171875 13.246094 -4.96875 9.105469 -4.96875 Z M 2.160156 -24.476562 L 2.160156 0 L 9.429688 0 C 16.375 0 21.59375 -5.328125 21.59375 -12.238281 C 21.59375 -19.148438 16.339844 -24.476562 9.429688 -24.476562 Z M 2.160156 -24.476562 "/></g></g></g><g fill="#5c4392" fill-opacity="1"><g transform="translate(89.242938, 299.781396)"><g><path d="M 21.054688 -12.273438 C 21.054688 -8.496094 17.636719 -5.039062 13.855469 -5.039062 C 10.078125 -5.039062 6.660156 -8.496094 6.660156 -12.273438 C 6.660156 -16.050781 10.078125 -19.472656 13.855469 -19.472656 C 17.636719 -19.472656 21.054688 -16.050781 21.054688 -12.273438 Z M 26.453125 -12.238281 C 26.453125 -19.003906 20.625 -24.835938 13.855469 -24.835938 C 7.089844 -24.835938 1.257812 -19.003906 1.257812 -12.238281 C 1.257812 -5.472656 7.089844 0.359375 13.855469 0.359375 C 20.625 0.359375 26.453125 -5.472656 26.453125 -12.238281 Z M 26.453125 -12.238281 "/></g></g></g><g fill="#5c4392" fill-opacity="1"><g transform="translate(119.113887, 299.781396)"><g><path d="M 32.679688 0 L 27.929688 -24.476562 L 21.523438 -24.476562 L 16.449219 -7.304688 L 11.335938 -24.476562 L 4.929688 -24.476562 L 0.179688 0 L 6.117188 0 L 9 -16.878906 L 13.785156 0 L 19.074219 0 L 23.863281 -16.878906 L 26.742188 0 Z M 32.679688 0 "/></g></g></g><g fill="#5c4392" fill-opacity="1"><g transform="translate(154.131163, 299.781396)"><g><path d="M 21.054688 -12.273438 C 21.054688 -8.496094 17.636719 -5.039062 13.855469 -5.039062 C 10.078125 -5.039062 6.660156 -8.496094 6.660156 -12.273438 C 6.660156 -16.050781 10.078125 -19.472656 13.855469 -19.472656 C 17.636719 -19.472656 21.054688 -16.050781 21.054688 -12.273438 Z M 26.453125 -12.238281 C 26.453125 -19.003906 20.625 -24.835938 13.855469 -24.835938 C 7.089844 -24.835938 1.257812 -19.003906 1.257812 -12.238281 C 1.257812 -5.472656 7.089844 0.359375 13.855469 0.359375 C 20.625 0.359375 26.453125 -5.472656 26.453125 -12.238281 Z M 26.453125 -12.238281 "/></g></g></g><g fill="#5c4392" fill-opacity="1"><g transform="translate(184.002112, 299.781396)"><g><path d="M 12.5625 -19.578125 L 19.542969 -19.578125 L 19.542969 -24.476562 L 0.179688 -24.476562 L 0.179688 -19.578125 L 7.164062 -19.578125 L 7.164062 0 L 12.5625 0 Z M 12.5625 -19.578125 "/></g></g></g><g fill="#5c4392" fill-opacity="1"><g transform="translate(205.883671, 299.781396)"><g><path d="M 7.558594 0 L 7.558594 -24.476562 L 2.160156 -24.476562 L 2.160156 0 Z M 7.558594 0 "/></g></g></g><g fill="#5c4392" fill-opacity="1"><g transform="translate(217.760486, 299.781396)"><g><path d="M 7.558594 -10.941406 L 15.296875 0 L 22.566406 0 L 12.8125 -12.238281 L 22.207031 -24.476562 L 15.296875 -24.476562 L 7.558594 -13.53125 L 7.558594 -24.476562 L 2.160156 -24.476562 L 2.160156 0 L 7.558594 0 Z M 7.558594 -10.941406 "/></g></g></g><g fill="#000000" fill-opacity="1"><g transform="translate(242.12102, 299.781396)"><g><path d="M 2.160156 0 L 16.339844 0 L 16.339844 -4.894531 L 7.558594 -4.894531 L 7.558594 -24.476562 L 2.160156 -24.476562 Z M 2.160156 0 "/></g></g></g><g fill="#000000" fill-opacity="1"><g transform="translate(261.879271, 299.781396)"><g><path d="M 16.449219 -24.476562 L 16.449219 -10.328125 C 16.449219 -6.945312 15.441406 -5.039062 11.734375 -5.039062 C 8.0625 -5.039062 7.019531 -6.945312 7.019531 -10.328125 L 7.019531 -24.476562 L 1.621094 -24.476562 L 1.621094 -9.539062 C 1.621094 -3.023438 5.363281 0.359375 11.734375 0.359375 C 18.105469 0.359375 21.847656 -3.023438 21.847656 -9.539062 L 21.847656 -24.476562 Z M 16.449219 -24.476562 "/></g></g></g><g fill="#000000" fill-opacity="1"><g transform="translate(287.503604, 299.781396)"><g><path d="M 23.828125 0 L 15.332031 -12.238281 L 23.828125 -24.476562 L 17.242188 -24.476562 L 12.023438 -15.980469 L 6.800781 -24.476562 L 0.214844 -24.476562 L 8.710938 -12.238281 L 0.214844 0 L 6.800781 0 L 12.023438 -8.496094 L 17.242188 0 Z M 23.828125 0 "/></g></g></g><g fill="#000000" fill-opacity="1"><g transform="translate(28.501634, 336.406413)"><g><path d="M 1.984375 -14 L 4.265625 -1.8125 L 6.515625 -14 L 7.953125 -14 L 5.34375 0 L 3.046875 0 L 0.40625 -14 Z M 1.984375 -14 "/></g></g></g><g fill="#000000" fill-opacity="1"><g transform="translate(44.858287, 336.406413)"><g><path d="M 2.359375 -14 L 2.359375 0 L 0.796875 0 L 0.796875 -14 Z M 2.359375 -14 "/></g></g></g><g fill="#000000" fill-opacity="1"><g transform="translate(56.016988, 336.406413)"><g><path d="M 1.984375 -14 L 4.265625 -1.8125 L 6.515625 -14 L 7.953125 -14 L 5.34375 0 L 3.046875 0 L 0.40625 -14 Z M 1.984375 -14 "/></g></g></g><g fill="#000000" fill-opacity="1"><g transform="translate(72.373641, 336.406413)"><g><path d="M 5.78125 -7.796875 L 5.78125 -6.40625 L 2.359375 -6.40625 L 2.359375 -1.421875 L 6.5625 -1.421875 L 6.5625 0 L 0.796875 0 L 0.796875 -14 L 6.5625 -14 L 6.5625 -12.578125 L 2.359375 -12.578125 L 2.359375 -7.796875 Z M 5.78125 -7.796875 "/></g></g></g><g fill="#000000" fill-opacity="1"><g transform="translate(87.570756, 336.406413)"><g><path d="M 6.9375 0 L 0.578125 0 L 0.578125 -1.40625 L 5.375 -12.578125 L 0.796875 -12.578125 L 0.796875 -14 L 6.984375 -14 L 6.984375 -12.59375 L 2.15625 -1.421875 L 6.9375 -1.421875 Z M 6.9375 0 "/></g></g></g><g fill="#000000" fill-opacity="1"><g transform="translate(103.147709, 336.406413)"><g/></g></g><g fill="#000000" fill-opacity="1"><g transform="translate(114.246434, 336.406413)"><g><path d="M 5.953125 -0.015625 L 4.453125 -0.015625 L 2.140625 -11.15625 L 2.140625 0 L 0.78125 0 L 0.78125 -14 L 2.953125 -14 L 5.265625 -2.8125 L 7.484375 -14 L 9.65625 -14 L 9.65625 0 L 8.1875 0 L 8.1875 -11.265625 Z M 5.953125 -0.015625 "/></g></g></g><g fill="#000000" fill-opacity="1"><g transform="translate(132.702257, 336.406413)"><g><path d="M 2.359375 -14 L 2.359375 0 L 0.796875 0 L 0.796875 -14 Z M 2.359375 -14 "/></g></g></g><g fill="#000000" fill-opacity="1"><g transform="translate(143.860955, 336.406413)"><g><path d="M 5.78125 -7.796875 L 5.78125 -6.40625 L 2.359375 -6.40625 L 2.359375 -1.421875 L 6.5625 -1.421875 L 6.5625 0 L 0.796875 0 L 0.796875 -14 L 6.5625 -14 L 6.5625 -12.578125 L 2.359375 -12.578125 L 2.359375 -7.796875 Z M 5.78125 -7.796875 "/></g></g></g><g fill="#000000" fill-opacity="1"><g transform="translate(159.058067, 336.406413)"><g><path d="M 2.28125 -3.296875 C 2.28125 -2.660156 2.410156 -2.164062 2.671875 -1.8125 C 2.929688 -1.457031 3.347656 -1.28125 3.921875 -1.28125 C 4.484375 -1.28125 4.894531 -1.457031 5.15625 -1.8125 C 5.414062 -2.164062 5.546875 -2.660156 5.546875 -3.296875 L 5.546875 -14 L 7 -14 L 7 -3.375 C 7 -2.3125 6.742188 -1.457031 6.234375 -0.8125 C 5.734375 -0.164062 4.941406 0.15625 3.859375 0.15625 C 2.796875 0.15625 2.007812 -0.164062 1.5 -0.8125 C 0.988281 -1.457031 0.734375 -2.3125 0.734375 -3.375 L 0.734375 -14 L 2.28125 -14 Z M 2.28125 -3.296875 "/></g></g></g><g fill="#000000" fill-opacity="1"><g transform="translate(174.794963, 336.406413)"><g><path d="M 4.28125 -6.046875 L 1.9375 0 L 0.453125 0 L 3.28125 -7.21875 L 0.640625 -14 L 2.265625 -14 L 4.421875 -8.40625 L 6.59375 -14 L 8.0625 -14 L 5.4375 -7.21875 L 8.234375 0 L 6.59375 0 Z M 4.28125 -6.046875 "/></g></g></g><g fill="#000000" fill-opacity="1"><g transform="translate(191.49148, 336.406413)"><g><path d="M 1.484375 0 L 0.90625 0 L 0.90625 -1.9375 L 2.40625 -1.9375 L 2.40625 -0.140625 L 1.625 1.765625 L 0.984375 1.765625 Z M 1.484375 0 "/></g></g></g><g fill="#000000" fill-opacity="1"><g transform="translate(202.690164, 336.406413)"><g/></g></g><g fill="#000000" fill-opacity="1"><g transform="translate(213.788883, 336.406413)"><g><path d="M 4.078125 -14 C 5.171875 -14 5.972656 -13.6875 6.484375 -13.0625 C 7.003906 -12.445312 7.265625 -11.597656 7.265625 -10.515625 L 7.265625 -3.453125 C 7.265625 -2.378906 7.003906 -1.535156 6.484375 -0.921875 C 5.972656 -0.304688 5.171875 0 4.078125 0 L 0.796875 0 L 0.796875 -14 Z M 4.0625 -1.421875 C 4.625 -1.421875 5.039062 -1.585938 5.3125 -1.921875 C 5.582031 -2.265625 5.71875 -2.757812 5.71875 -3.40625 L 5.71875 -10.59375 C 5.71875 -11.238281 5.582031 -11.726562 5.3125 -12.0625 C 5.039062 -12.40625 4.617188 -12.578125 4.046875 -12.578125 L 2.359375 -12.578125 L 2.359375 -1.421875 Z M 4.0625 -1.421875 "/></g></g></g><g fill="#000000" fill-opacity="1"><g transform="translate(229.705715, 336.406413)"><g><path d="M 0.6875 -10.625 C 0.6875 -11.695312 0.945312 -12.550781 1.46875 -13.1875 C 2 -13.820312 2.800781 -14.140625 3.875 -14.140625 C 4.957031 -14.140625 5.765625 -13.820312 6.296875 -13.1875 C 6.828125 -12.550781 7.09375 -11.695312 7.09375 -10.625 L 7.09375 -3.375 C 7.09375 -2.3125 6.828125 -1.457031 6.296875 -0.8125 C 5.765625 -0.175781 4.957031 0.140625 3.875 0.140625 C 2.800781 0.140625 2 -0.175781 1.46875 -0.8125 C 0.945312 -1.457031 0.6875 -2.3125 0.6875 -3.375 Z M 2.21875 -3.296875 C 2.21875 -2.660156 2.351562 -2.164062 2.625 -1.8125 C 2.90625 -1.457031 3.320312 -1.28125 3.875 -1.28125 C 4.445312 -1.28125 4.867188 -1.457031 5.140625 -1.8125 C 5.410156 -2.164062 5.546875 -2.660156 5.546875 -3.296875 L 5.546875 -10.703125 C 5.546875 -11.335938 5.410156 -11.832031 5.140625 -12.1875 C 4.867188 -12.539062 4.445312 -12.71875 3.875 -12.71875 C 3.320312 -12.71875 2.90625 -12.539062 2.625 -12.1875 C 2.351562 -11.832031 2.21875 -11.335938 2.21875 -10.703125 Z M 2.21875 -3.296875 "/></g></g></g><g fill="#000000" fill-opacity="1"><g transform="translate(245.482607, 336.406413)"><g><path d="M 5.953125 -0.015625 L 4.453125 -0.015625 L 2.140625 -11.15625 L 2.140625 0 L 0.78125 0 L 0.78125 -14 L 2.953125 -14 L 5.265625 -2.8125 L 7.484375 -14 L 9.65625 -14 L 9.65625 0 L 8.1875 0 L 8.1875 -11.265625 Z M 5.953125 -0.015625 "/></g></g></g><g fill="#000000" fill-opacity="1"><g transform="translate(263.938424, 336.406413)"><g><path d="M 0.6875 -10.625 C 0.6875 -11.695312 0.945312 -12.550781 1.46875 -13.1875 C 2 -13.820312 2.800781 -14.140625 3.875 -14.140625 C 4.957031 -14.140625 5.765625 -13.820312 6.296875 -13.1875 C 6.828125 -12.550781 7.09375 -11.695312 7.09375 -10.625 L 7.09375 -3.375 C 7.09375 -2.3125 6.828125 -1.457031 6.296875 -0.8125 C 5.765625 -0.175781 4.957031 0.140625 3.875 0.140625 C 2.800781 0.140625 2 -0.175781 1.46875 -0.8125 C 0.945312 -1.457031 0.6875 -2.3125 0.6875 -3.375 Z M 2.21875 -3.296875 C 2.21875 -2.660156 2.351562 -2.164062 2.625 -1.8125 C 2.90625 -1.457031 3.320312 -1.28125 3.875 -1.28125 C 4.445312 -1.28125 4.867188 -1.457031 5.140625 -1.8125 C 5.410156 -2.164062 5.546875 -2.660156 5.546875 -3.296875 L 5.546875 -10.703125 C 5.546875 -11.335938 5.410156 -11.832031 5.140625 -12.1875 C 4.867188 -12.539062 4.445312 -12.71875 3.875 -12.71875 C 3.320312 -12.71875 2.90625 -12.539062 2.625 -12.1875 C 2.351562 -11.832031 2.21875 -11.335938 2.21875 -10.703125 Z M 2.21875 -3.296875 "/></g></g></g><g fill="#000000" fill-opacity="1"><g transform="translate(279.715317, 336.406413)"><g><path d="M 2.8125 0 L 2.8125 -12.578125 L 0.234375 -12.578125 L 0.234375 -14 L 6.9375 -14 L 6.9375 -12.578125 L 4.359375 -12.578125 L 4.359375 0 Z M 2.8125 0 "/></g></g></g><g fill="#000000" fill-opacity="1"><g transform="translate(294.912429, 336.406413)"><g><path d="M 2.359375 -14 L 2.359375 0 L 0.796875 0 L 0.796875 -14 Z M 2.359375 -14 "/></g></g></g><g fill="#000000" fill-opacity="1"><g transform="translate(306.071127, 336.406413)"><g><path d="M 3.734375 -14.140625 C 4.804688 -14.140625 5.59375 -13.820312 6.09375 -13.1875 C 6.601562 -12.550781 6.859375 -11.703125 6.859375 -10.640625 L 6.859375 -10.265625 L 5.375 -10.265625 L 5.375 -10.71875 C 5.375 -11.363281 5.25 -11.859375 5 -12.203125 C 4.75 -12.546875 4.34375 -12.71875 3.78125 -12.71875 C 3.21875 -12.71875 2.8125 -12.546875 2.5625 -12.203125 C 2.3125 -11.859375 2.1875 -11.367188 2.1875 -10.734375 C 2.1875 -10.210938 2.300781 -9.757812 2.53125 -9.375 C 2.757812 -8.988281 3.046875 -8.628906 3.390625 -8.296875 C 3.742188 -7.972656 4.125 -7.65625 4.53125 -7.34375 C 4.9375 -7.03125 5.3125 -6.6875 5.65625 -6.3125 C 6.007812 -5.945312 6.300781 -5.523438 6.53125 -5.046875 C 6.757812 -4.578125 6.875 -4.015625 6.875 -3.359375 C 6.875 -2.296875 6.617188 -1.445312 6.109375 -0.8125 C 5.597656 -0.175781 4.800781 0.140625 3.71875 0.140625 C 2.632812 0.140625 1.835938 -0.175781 1.328125 -0.8125 C 0.828125 -1.445312 0.578125 -2.296875 0.578125 -3.359375 L 0.578125 -4.15625 L 2.046875 -4.15625 L 2.046875 -3.28125 C 2.046875 -2.632812 2.175781 -2.140625 2.4375 -1.796875 C 2.707031 -1.453125 3.125 -1.28125 3.6875 -1.28125 C 4.238281 -1.28125 4.644531 -1.453125 4.90625 -1.796875 C 5.175781 -2.140625 5.3125 -2.632812 5.3125 -3.28125 C 5.3125 -3.800781 5.195312 -4.25 4.96875 -4.625 C 4.738281 -5.007812 4.445312 -5.363281 4.09375 -5.6875 C 3.75 -6.019531 3.375 -6.34375 2.96875 -6.65625 C 2.570312 -6.96875 2.203125 -7.304688 1.859375 -7.671875 C 1.515625 -8.046875 1.222656 -8.46875 0.984375 -8.9375 C 0.753906 -9.414062 0.640625 -9.984375 0.640625 -10.640625 C 0.640625 -11.722656 0.890625 -12.578125 1.390625 -13.203125 C 1.898438 -13.828125 2.679688 -14.140625 3.734375 -14.140625 Z M 3.734375 -14.140625 "/></g></g></g><g fill="#000000" fill-opacity="1"><g transform="translate(321.508153, 336.406413)"><g><path d="M 5.78125 -7.796875 L 5.78125 -6.40625 L 2.359375 -6.40625 L 2.359375 -1.421875 L 6.5625 -1.421875 L 6.5625 0 L 0.796875 0 L 0.796875 -14 L 6.5625 -14 L 6.5625 -12.578125 L 2.359375 -12.578125 L 2.359375 -7.796875 Z M 5.78125 -7.796875 "/></g></g></g><g fill="#000000" fill-opacity="1"><g transform="translate(336.705265, 336.406413)"><g><path d="M 6.9375 0 L 0.578125 0 L 0.578125 -1.40625 L 5.375 -12.578125 L 0.796875 -12.578125 L 0.796875 -14 L 6.984375 -14 L 6.984375 -12.59375 L 2.15625 -1.421875 L 6.9375 -1.421875 Z M 6.9375 0 "/></g></g></g></svg>